<svg width="270" height="57" viewBox="0 0 270 57" fill="none" xmlns="http://www.w3.org/2000/svg">
<path d="M80.3998 24.756H73.2434L73.7485 23.5941V47.7574H71.6774V23.5941L72.2836 24.756H65.0262V22.9206H80.3998V24.756Z" fill="#003BE5"/>
<path d="M82.7843 47.7574V29.8749H84.8722V35.1454L84.1313 34.9096C84.1987 34.3483 84.3615 33.7646 84.6197 33.1584C84.8891 32.541 85.2595 31.9629 85.731 31.424C86.2025 30.8852 86.7918 30.453 87.499 30.1275C88.2175 29.7907 89.0706 29.6223 90.0585 29.6223C90.777 29.6223 91.3551 29.684 91.7929 29.8075C92.2307 29.931 92.5057 30.0264 92.618 30.0938L92.0455 32.1144C91.9332 32.0358 91.7031 31.9348 91.3551 31.8113C91.0071 31.6878 90.5075 31.6261 89.8564 31.6261C88.9135 31.6261 88.1221 31.8113 87.4822 32.1818C86.8423 32.541 86.3316 33.0125 85.9499 33.5962C85.5682 34.1799 85.2932 34.803 85.1248 35.4653C84.9564 36.1164 84.8722 36.745 84.8722 37.3512V47.7574H82.7843Z" fill="#003BE5"/>
<path d="M96.2056 55.2337C95.7903 55.2337 95.4086 55.2057 95.0606 55.1496C94.7238 55.1046 94.5105 55.0597 94.4207 55.0148V53.1794C94.5667 53.2468 94.8024 53.3029 95.128 53.3478C95.4647 53.404 95.7847 53.432 96.0878 53.432C96.8623 53.432 97.5022 53.2524 98.0074 52.8932C98.5237 52.5452 98.9503 52.0793 99.2871 51.4956C99.6239 50.9119 99.9101 50.2832 100.146 49.6097L100.769 47.8079L94.4881 29.8749H96.6771L102.065 45.8883H101.762L107.083 29.8749H109.222L102.419 49.5086C102.082 50.4853 101.678 51.4114 101.207 52.287C100.735 53.1626 100.107 53.8698 99.3208 54.4087C98.535 54.9587 97.4966 55.2337 96.2056 55.2337Z" fill="#003BE5"/>
<path d="M121.489 48.0774C120.12 48.0774 118.851 47.7462 117.684 47.0839C116.516 46.4216 115.573 45.5235 114.855 44.3897C114.148 43.2559 113.794 41.9818 113.794 40.5674C113.794 40.5337 113.794 40.5056 113.794 40.4832C113.794 40.4607 113.794 40.4383 113.794 40.4158L115.343 40.3821C115.343 40.4046 115.343 40.427 115.343 40.4495C115.343 40.4719 115.343 40.4944 115.343 40.5169C115.343 41.5272 115.613 42.4589 116.151 43.312C116.701 44.1652 117.42 44.8444 118.307 45.3495C119.205 45.8547 120.176 46.1073 121.22 46.1073C122.949 46.1073 124.369 45.4955 125.48 44.2718C126.603 43.037 127.164 41.2185 127.164 38.8162C127.164 36.4026 126.608 34.5841 125.497 33.3605C124.385 32.1369 122.96 31.5251 121.22 31.5251C120.176 31.5251 119.205 31.7776 118.307 32.2828C117.42 32.788 116.701 33.4615 116.151 34.3034C115.613 35.1454 115.343 36.0771 115.343 37.0986L113.794 37.0481C113.794 35.6337 114.148 34.3652 114.855 33.2426C115.573 32.12 116.516 31.2388 117.684 30.5989C118.851 29.9478 120.12 29.6223 121.489 29.6223C122.937 29.6223 124.251 29.9815 125.429 30.7C126.619 31.4072 127.562 32.4456 128.258 33.8151C128.954 35.1846 129.302 36.8517 129.302 38.8162C129.302 40.8031 128.954 42.487 128.258 43.8677C127.574 45.2485 126.642 46.2981 125.463 47.0165C124.284 47.7238 122.96 48.0774 121.489 48.0774ZM113.238 47.7574V21.4388H115.343V47.7574H113.238Z" fill="#003BE5"/>
<path d="M134.625 39.6918V37.8227H149.106L148.702 38.3952C148.702 38.3278 148.702 38.2717 148.702 38.2268C148.702 38.1707 148.702 38.1145 148.702 38.0584C148.702 36.9022 148.455 35.8245 147.961 34.8254C147.467 33.8263 146.749 33.0237 145.806 32.4175C144.874 31.8113 143.735 31.5082 142.387 31.5082C141.018 31.5082 139.811 31.8225 138.767 32.4512C137.723 33.0686 136.909 33.9274 136.326 35.0275C135.742 36.1164 135.45 37.3849 135.45 38.833C135.45 40.2923 135.736 41.5777 136.309 42.689C136.892 43.7891 137.706 44.6479 138.75 45.2653C139.794 45.8715 141.012 46.1746 142.404 46.1746C143.426 46.1746 144.313 46.0511 145.065 45.8042C145.828 45.546 146.457 45.2092 146.951 44.7938C147.456 44.3785 147.838 43.9407 148.096 43.4804C148.365 43.009 148.522 42.5655 148.567 42.1502H150.638C150.593 42.8125 150.38 43.4917 149.998 44.1877C149.628 44.8724 149.095 45.5123 148.399 46.1073C147.714 46.7022 146.861 47.1849 145.839 47.5554C144.829 47.9146 143.662 48.0942 142.337 48.0942C140.608 48.0942 139.07 47.7013 137.723 46.9155C136.387 46.1297 135.332 45.0464 134.558 43.6657C133.794 42.2737 133.413 40.674 133.413 38.8667C133.413 37.0481 133.8 35.4484 134.574 34.0677C135.349 32.6757 136.41 31.5868 137.757 30.801C139.104 30.0152 140.636 29.6223 142.354 29.6223C144.105 29.6223 145.62 30.0208 146.9 30.8178C148.18 31.6149 149.168 32.6981 149.864 34.0677C150.56 35.426 150.908 36.9527 150.908 38.6478C150.908 38.7937 150.902 38.9789 150.891 39.2034C150.891 39.428 150.885 39.5907 150.874 39.6918H134.625Z" fill="#003BE5"/>
<path d="M160.568 47.7574L157.133 22.9206H164.121L166.276 46.6966L165.317 46.6461L168.802 22.9206H177.104L180.572 46.6461L179.613 46.6966L181.768 22.9206H188.756L185.321 47.7574H174.931L172.625 27.3323H173.298L170.974 47.7574H160.568Z" fill="#2FC18C"/>
<path d="M196.573 48.1616C195.293 48.1616 194.148 47.9595 193.138 47.5554C192.127 47.14 191.33 46.5451 190.747 45.7705C190.163 44.9847 189.871 44.0305 189.871 42.9079C189.871 41.5833 190.247 40.5168 190.999 39.7086C191.762 38.9003 192.734 38.2885 193.912 37.8732C195.102 37.4578 196.331 37.194 197.6 37.0818C199.407 36.9134 200.625 36.7675 201.254 36.644C201.882 36.5205 202.197 36.3016 202.197 35.9873C202.197 35.9761 202.197 35.9704 202.197 35.9704C202.197 35.5551 201.944 35.2015 201.439 34.9096C200.945 34.6065 200.283 34.455 199.452 34.455C198.554 34.455 197.886 34.6234 197.448 34.9601C197.011 35.2857 196.792 35.7628 196.792 36.3914H190.107C190.107 34.8872 190.528 33.6243 191.37 32.6027C192.212 31.5812 193.34 30.8122 194.754 30.2958C196.18 29.7682 197.763 29.5044 199.503 29.5044C201.153 29.5044 202.696 29.7514 204.133 30.2453C205.581 30.7393 206.754 31.497 207.652 32.5185C208.551 33.5288 209 34.8254 209 36.4082C209 36.644 209 36.8797 209 37.1155C209 37.3512 209 37.5869 209 37.8227V43.3626C209 43.8565 209.011 44.3336 209.033 44.7938C209.056 45.2541 209.123 45.6807 209.235 46.0736C209.359 46.4889 209.522 46.8481 209.724 47.1512C209.926 47.4431 210.088 47.6452 210.212 47.7574H203.578C203.477 47.6564 203.331 47.4712 203.14 47.2018C202.949 46.9323 202.792 46.6236 202.668 46.2756C202.5 45.7705 202.376 45.299 202.298 44.8612C202.23 44.4122 202.197 43.8677 202.197 43.2279L203.679 44.255C203.375 45.0745 202.859 45.7761 202.129 46.3598C201.411 46.9436 200.563 47.3926 199.587 47.7069C198.621 48.01 197.617 48.1616 196.573 48.1616ZM198.593 43.3457C199.177 43.3457 199.75 43.2166 200.311 42.9584C200.883 42.7002 201.36 42.2737 201.742 41.6787C202.124 41.0725 202.315 40.253 202.315 39.2203V38.5804L204.049 39.978C203.308 40.2362 202.483 40.4551 201.574 40.6347C200.664 40.8031 199.794 40.9322 198.964 41.022C198.189 41.1006 197.611 41.2297 197.229 41.4093C196.859 41.5777 196.674 41.8527 196.674 42.2344C196.674 42.6161 196.842 42.8967 197.179 43.0763C197.516 43.2559 197.987 43.3457 198.593 43.3457Z" fill="#2FC18C"/>
<path d="M219.141 21.4388V47.7574H212.456V21.4388H219.141Z" fill="#2FC18C"/>
<path d="M229.533 21.4388V47.7574H222.848V21.4388H229.533Z" fill="#2FC18C"/>
<path d="M235.716 40.6684V36.6271H246.257L245.752 37.5027C245.752 37.4129 245.752 37.3175 245.752 37.2165C245.752 37.1042 245.752 37.0088 245.752 36.9302C245.752 36.5486 245.64 36.1557 245.415 35.7515C245.202 35.3362 244.848 34.9882 244.354 34.7075C243.872 34.4269 243.22 34.2866 242.401 34.2866C241.604 34.2866 240.936 34.455 240.397 34.7917C239.858 35.1285 239.454 35.6281 239.185 36.2904C238.915 36.9415 238.781 37.7385 238.781 38.6814C238.781 39.6693 238.91 40.5112 239.168 41.2072C239.426 41.9032 239.836 42.4364 240.397 42.8069C240.958 43.1661 241.694 43.3457 242.603 43.3457C243.142 43.3457 243.602 43.3064 243.984 43.2279C244.365 43.1493 244.669 43.0482 244.893 42.9248C245.129 42.8013 245.303 42.6666 245.415 42.5206C245.539 42.3747 245.611 42.2344 245.634 42.0997H252.336C252.257 42.8855 251.971 43.6432 251.477 44.3729C250.994 45.1026 250.326 45.7593 249.473 46.343C248.62 46.9155 247.593 47.3701 246.392 47.7069C245.191 48.0325 243.832 48.1952 242.317 48.1952C240.218 48.1952 238.399 47.8023 236.861 47.0165C235.323 46.2195 234.139 45.1194 233.308 43.7162C232.477 42.3017 232.062 40.6796 232.062 38.8498C232.062 36.9751 232.489 35.3362 233.342 33.933C234.195 32.5298 235.39 31.4409 236.928 30.6663C238.478 29.8917 240.274 29.5044 242.317 29.5044C244.427 29.5044 246.246 29.9029 247.772 30.7C249.31 31.4858 250.495 32.6083 251.325 34.0677C252.156 35.5158 252.571 37.2389 252.571 39.2371C252.571 39.5739 252.566 39.8601 252.555 40.0959C252.543 40.3316 252.527 40.5225 252.504 40.6684H235.716Z" fill="#2FC18C"/>
<path d="M264.958 48.1952C264.183 48.1952 263.364 48.1335 262.499 48.01C261.646 47.8978 260.844 47.6564 260.091 47.2859C259.339 46.9155 258.727 46.3598 258.256 45.6189C257.785 44.8668 257.549 43.8621 257.549 42.6048C257.549 42.3466 257.549 42.0884 257.549 41.8303C257.549 41.5721 257.549 41.3195 257.549 41.0725V34.9264H253.558V29.8749H253.642C254.518 29.8749 255.214 29.8356 255.73 29.757C256.258 29.6784 256.651 29.4876 256.909 29.1845C257.167 28.8814 257.336 28.4043 257.414 27.7532C257.504 27.1021 257.549 26.2041 257.549 25.0591V24.0151H264.352V29.8749H269.285V34.9264H264.352V39.8601C264.352 40.0285 264.352 40.1969 264.352 40.3653C264.352 40.5225 264.352 40.6852 264.352 40.8536C264.352 41.5047 264.43 42.0548 264.587 42.5038C264.744 42.9528 265.165 43.1773 265.85 43.1773C266.254 43.1773 266.636 43.1381 266.995 43.0595C267.354 42.9809 267.624 42.9023 267.803 42.8237V47.7238C267.545 47.836 267.169 47.9427 266.675 48.0437C266.193 48.1447 265.62 48.1952 264.958 48.1952Z" fill="#2FC18C"/>
<path d="M5.64937 16.8774C5.64937 10.6776 10.6753 5.65166 16.8751 5.65166H44.9393C51.1391 5.65166 56.165 10.6776 56.165 16.8774V44.9416C56.165 51.1414 51.1391 56.1673 44.9393 56.1673H16.8751C10.6753 56.1673 5.64937 51.1414 5.64937 44.9416V16.8774Z" fill="#00D5E2"/>
<path d="M19.6815 16.8773L56.1651 33.7159V44.9416C56.1651 51.1414 51.1391 56.1673 44.9393 56.1673H37.9233L19.6815 16.8773Z" fill="#003BE5" fill-opacity="0.34"/>
<path d="M11.6404 26.2405L27.008 10.8729L51.4096 35.2745L36.042 50.642L11.6404 26.2405Z" fill="white"/>
<path d="M2.34791 53.8586C2.788 54.2987 3.37818 54.4851 3.94772 54.4229C3.94772 54.4229 14.6957 54.4851 20.8049 48.6243C20.8825 48.5571 20.955 48.4846 21.0274 48.4121C23.2432 46.1962 23.238 42.6083 21.0274 40.3977C18.8166 38.1869 15.2288 38.1819 13.013 40.3977L2.34791 51.0628C1.5765 51.8343 1.5765 53.0871 2.34791 53.8586Z" fill="white"/>
<path d="M12.2091 49.3203C12.354 50.2983 11.7744 51.711 10.6274 52.9184C10.2773 53.2806 9.91504 53.5945 9.54074 53.836" fill="white"/>
<path d="M7.16213 52.5078C7.06554 53.2081 6.72747 53.848 6.19621 54.3068L7.16213 52.5078Z" fill="white"/>
<path d="M29.025 16.4521C30.1227 15.3544 30.1227 13.5747 29.025 12.477C27.9273 11.3793 26.1476 11.3793 25.0499 12.477C23.9522 13.5747 23.9522 15.3544 25.0499 16.4521C26.1476 17.5498 27.9273 17.5498 29.025 16.4521Z" fill="#2FC18C"/>
<path d="M50.3337 37.232C51.4314 36.1343 51.4314 34.3546 50.3338 33.2569C49.2361 32.1592 47.4564 32.1592 46.3587 33.2569C45.261 34.3546 45.261 36.1343 46.3587 37.232C47.4564 38.3297 49.2361 38.3297 50.3337 37.232Z" fill="#2FC18C"/>
<path d="M16.819 28.6578C17.9167 27.5601 17.9167 25.7804 16.819 24.6827C15.7213 23.585 13.9416 23.585 12.8439 24.6827C11.7462 25.7804 11.7462 27.5601 12.8439 28.6578C13.9416 29.7555 15.7213 29.7555 16.819 28.6578Z" fill="#2FC18C"/>
<path d="M37.6594 49.4984C38.7571 48.4007 38.7571 46.621 37.6594 45.5233C36.5617 44.4256 34.782 44.4256 33.6844 45.5233C32.5867 46.621 32.5867 48.4007 33.6843 49.4984C34.782 50.596 36.5617 50.596 37.6594 49.4984Z" fill="#2FC18C"/>
<path d="M50.6522 34.6972L49.2264 36.1229L25.8941 12.7906L27.3198 11.3648L50.6522 34.6972Z" fill="#2FC18C"/>
<path d="M36.4714 48.3092L35.0456 49.7349L11.7133 26.4026L13.1391 24.9768L36.4714 48.3092Z" fill="#2FC18C"/>
<path d="M27.3321 10.7825L28.7745 12.2249L13.155 27.8444L11.7126 26.4019L27.3321 10.7825Z" fill="#2FC18C"/>
<path d="M50.0703 33.5203L51.5127 34.9627L35.8932 50.5822L34.4508 49.1398L50.0703 33.5203Z" fill="#2FC18C"/>
<path d="M39.3927 38.4637C42.1 35.7564 40.7487 30.0156 36.3745 25.6413C32.0002 21.2671 26.2595 19.9158 23.5521 22.6231C20.8448 25.3305 22.1961 31.0713 26.5703 35.4455C30.9446 39.8198 36.6853 41.1711 39.3927 38.4637Z" fill="#2FC18C"/>
<path d="M43.6645 27.4683L28.1253 43.0075C28.0694 43.0633 28.0079 43.1035 27.9409 43.1382C27.6678 43.2715 27.3163 43.2147 27.0799 42.9785L18.8384 34.7369C18.6019 34.5005 18.5451 34.149 18.6786 33.8759C18.7133 33.809 18.7535 33.7474 18.8094 33.6916L34.3484 18.1523C34.4043 18.0964 34.4659 18.0563 34.5328 18.0216C34.8059 17.8882 35.1574 17.945 35.3938 18.1813L43.6353 26.4228C43.8717 26.6592 43.9286 27.0107 43.7951 27.2838C43.7604 27.3509 43.7204 27.4124 43.6645 27.4683Z" fill="#2FC18C"/>
<path fill-rule="evenodd" clip-rule="evenodd" d="M18.8094 33.6916C18.7535 33.7474 18.7133 33.809 18.6786 33.8759C18.5451 34.149 18.6019 34.5005 18.8384 34.7369L27.0799 42.9785C27.3163 43.2147 27.6678 43.2715 27.9409 43.1382C28.0079 43.1035 28.0694 43.0633 28.1253 43.0075L43.6645 27.4683C43.7204 27.4124 43.7604 27.3509 43.7951 27.2838C43.9286 27.0107 43.8717 26.6592 43.6353 26.4228L35.3938 18.1813C35.1574 17.945 34.8059 17.8882 34.5328 18.0216C34.4659 18.0563 34.4043 18.0964 34.3484 18.1523L18.8094 33.6916ZM34.8566 20.4223L21.0794 34.1997L27.6171 40.7374L41.3944 26.9601L34.8566 20.4223Z" fill="#036B52"/>
<path d="M54.5155 1.69097C54.9556 2.13107 55.142 2.72125 55.0798 3.29078C55.0798 3.29078 55.142 14.0387 49.2813 20.1479C49.214 20.2256 49.1415 20.298 49.069 20.3706C46.8532 22.5864 43.2653 22.5812 41.0546 20.3706C38.8439 18.1598 38.8388 14.572 41.0546 12.3562L51.7197 1.69109C52.4913 0.919559 53.7441 0.919559 54.5155 1.69097Z" fill="white"/>
<path d="M49.9771 11.5523C50.9551 11.6971 52.3678 11.1176 53.5752 9.97056C53.9374 9.62041 54.2513 9.25819 54.4928 8.8839" fill="white"/>
<path d="M53.1646 6.50528C53.8649 6.40869 54.5049 6.07062 54.9637 5.53936L53.1646 6.50528Z" fill="white"/>
<path fill-rule="evenodd" clip-rule="evenodd" d="M12.244 39.6287C14.8852 36.9875 19.1616 36.9938 21.7964 39.6287C24.4312 42.2634 24.4376 46.5399 21.7964 49.1811L21.7905 49.187C21.7271 49.2506 21.6389 49.3389 21.5395 49.4266C18.271 52.552 13.8318 54.0537 10.3066 54.7862C8.52639 55.1562 6.94487 55.3369 5.80682 55.4253C5.23714 55.4696 4.77679 55.4909 4.45612 55.5012C4.29573 55.5063 4.17015 55.5086 4.08314 55.5097C4.05034 55.5101 4.02301 55.5103 4.00137 55.5104C3.13701 55.5863 2.24462 55.2933 1.57887 54.6276C0.382695 53.4314 0.382781 51.49 1.57881 50.2938L12.244 39.6287ZM3.95401 53.3353L3.95711 53.3353L3.97549 53.3353C3.99276 53.3353 4.01998 53.3351 4.05669 53.3347C4.1301 53.3338 4.24139 53.3317 4.38683 53.3271C4.6778 53.3178 5.10486 53.2982 5.63825 53.2567C6.70636 53.1737 8.19365 53.0037 9.86406 52.6566C13.2336 51.9564 17.213 50.563 20.052 47.8395L20.0719 47.8204L20.0928 47.8023C20.1359 47.7649 20.1813 47.7202 20.2577 47.6437C22.0482 45.8532 22.0449 42.9533 20.2584 41.1667C18.4717 39.3801 15.5725 39.3763 13.7821 41.1667L3.11701 51.8318C3.11698 51.8318 3.11703 51.8318 3.11701 51.8318C2.77027 52.1786 2.77032 52.7429 3.11694 53.0895C3.31484 53.2874 3.57486 53.3696 3.82967 53.3417L3.89166 53.335L3.95401 53.3353Z" fill="#003BE5"/>
<path fill-rule="evenodd" clip-rule="evenodd" d="M5.49956 53.5137C5.92425 53.0889 6.61287 53.0889 7.03764 53.5136L7.05011 53.526C7.47488 53.9507 7.47495 54.6393 7.05026 55.0641C6.62557 55.4889 5.93695 55.4889 5.51218 55.0643L5.49971 55.0518C5.07494 54.6271 5.07488 53.9385 5.49956 53.5137Z" fill="#003BE5"/>
<path fill-rule="evenodd" clip-rule="evenodd" d="M12.0497 48.2445C12.6439 48.1564 13.1969 48.5667 13.2849 49.1609C13.3967 49.9151 13.2208 50.7235 12.9014 51.464C12.5758 52.2189 12.0692 52.9798 11.4159 53.6674L11.4094 53.6743L11.4094 53.6743C11.0197 54.0774 10.5937 54.4509 10.1303 54.7499C9.62561 55.0755 8.95247 54.9303 8.62684 54.4256C8.30121 53.9209 8.4464 53.2477 8.95113 52.9221C9.23531 52.7388 9.5327 52.4856 9.84213 52.1659C10.3342 51.6471 10.6898 51.0993 10.9041 50.6026C11.125 50.0905 11.1664 49.7035 11.1333 49.4797C11.0452 48.8855 11.4555 48.3325 12.0497 48.2445Z" fill="#003BE5"/>
<path fill-rule="evenodd" clip-rule="evenodd" d="M7.31073 51.4304C7.90575 51.5125 8.32158 52.0614 8.23951 52.6564C8.10824 53.6081 7.64629 54.4915 6.90707 55.1299C6.45248 55.5225 5.76569 55.4723 5.37309 55.0177C4.98049 54.5631 5.03074 53.8763 5.48533 53.4837C5.80862 53.2045 6.02282 52.8081 6.08474 52.3592C6.16681 51.7642 6.7157 51.3483 7.31073 51.4304Z" fill="#003BE5"/>
<path fill-rule="evenodd" clip-rule="evenodd" d="M27.0789 12.7436C27.0322 12.6968 26.9563 12.6968 26.9095 12.7436L13.3354 26.3177C13.2886 26.3645 13.2886 26.4404 13.3354 26.4872L12.5664 27.2562L13.3354 26.4872L35.8084 48.9603C35.8552 49.0071 35.9311 49.0071 35.9779 48.9603L49.552 35.3861C49.5987 35.3393 49.5987 35.2634 49.552 35.2166L27.0789 12.7436ZM25.3714 11.2055C26.2676 10.3093 27.7208 10.3093 28.617 11.2055L51.0901 33.6786C51.9863 34.5748 51.9863 36.0279 51.0901 36.9242L37.5159 50.4984C36.6197 51.3946 35.1666 51.3946 34.2704 50.4984L11.7973 28.0252C10.9011 27.129 10.9011 25.6759 11.7973 24.7796L25.3714 11.2055Z" fill="#003BE5"/>
<path fill-rule="evenodd" clip-rule="evenodd" d="M53.7464 2.46001C53.3998 2.11337 52.8356 2.11328 52.4888 2.46013L41.8237 13.1252C40.0332 14.9157 40.037 17.8149 41.8237 19.6015C43.6102 21.3881 46.5094 21.392 48.2999 19.6016C48.2999 19.6017 48.2999 19.6016 48.2999 19.6016M53.9923 3.29661L53.9923 3.30017L53.9922 3.31855C53.9922 3.33583 53.992 3.36305 53.9916 3.39975C53.9907 3.47316 53.9886 3.58446 53.984 3.72989C53.9747 4.02086 53.9551 4.44793 53.9136 4.98132C53.8306 6.04942 53.6606 7.53671 53.3135 9.20713C52.6133 12.5767 51.22 16.556 48.4964 19.395L48.4773 19.415L48.4592 19.4358C48.4218 19.479 48.3777 19.5237 48.2999 19.6016M53.9923 3.29661L53.9919 3.23472L53.9987 3.17274C54.0265 2.91792 53.9443 2.65791 53.7464 2.46001M56.1673 3.34443C56.2432 2.48008 55.9503 1.58768 55.2845 0.92193C54.0883 -0.274252 52.1469 -0.274165 50.9507 0.922051L40.2856 11.5872C37.6444 14.2284 37.6507 18.5048 40.2856 21.1396C42.9203 23.7743 47.1968 23.7808 49.838 21.1396L49.85 21.1277C49.9116 21.066 49.9981 20.9794 50.0835 20.8826C53.2089 17.6141 54.7106 13.1749 55.4432 9.64968C55.8131 7.86946 55.9938 6.28793 56.0823 5.14989C56.1266 4.5802 56.1479 4.11985 56.1581 3.79918C56.1632 3.6388 56.1655 3.51321 56.1666 3.4262C56.167 3.3934 56.1672 3.36608 56.1673 3.34443Z" fill="#003BE5"/>
<path fill-rule="evenodd" clip-rule="evenodd" d="M54.1705 4.84275C54.5952 4.41803 55.2838 4.41803 55.7086 4.84275L55.721 4.85522C56.1457 5.27995 56.1457 5.96857 55.721 6.3933C55.2963 6.81803 54.6077 6.81803 54.1829 6.3933L54.1705 6.38083C53.7457 5.9561 53.7457 5.26748 54.1705 4.84275Z" fill="#003BE5"/>
<path fill-rule="evenodd" clip-rule="evenodd" d="M55.0823 7.97C55.5871 8.29563 55.7322 8.96878 55.4066 9.47351C55.1077 9.9369 54.7341 10.3628 54.331 10.7525L54.3242 10.7591L54.3242 10.7591C53.6365 11.4123 52.8756 11.9189 52.1208 12.2445C51.3802 12.564 50.5718 12.7398 49.8176 12.6281C49.2235 12.5401 48.8132 11.987 48.9012 11.3929C48.9892 10.7987 49.5422 10.3884 50.1364 10.4764C50.3603 10.5096 50.7472 10.4681 51.2593 10.2472C51.756 10.033 52.3039 9.6774 52.8226 9.1853C53.1423 8.87586 53.3955 8.57847 53.5788 8.29429C53.9045 7.78956 54.5776 7.64437 55.0823 7.97Z" fill="#003BE5"/>
<path fill-rule="evenodd" clip-rule="evenodd" d="M55.6745 4.71625C56.1291 5.10885 56.1793 5.79563 55.7867 6.25022C55.1483 6.98944 54.2649 7.45139 53.3132 7.58266C52.7182 7.66474 52.1693 7.24891 52.0872 6.65388C52.0051 6.05886 52.4209 5.50997 53.016 5.42789C53.4648 5.36598 53.8613 5.15178 54.1405 4.82849C54.5331 4.3739 55.2199 4.32364 55.6745 4.71625Z" fill="#003BE5"/>
</svg>
